Simulation
nRows=20
nColumns=15
endheader
time  TH_x TH_y TH_z SC_y  SC_z  SC_x  AC_y  AC_z  AC_x  GH_y  GH_z  GH_yy  EL_x  PS_y
1.15  0.000000  0.000000  0.000000  -31.951270159342158  6.290948927315637  15.70463063685331  73.46351903563803  -2.9024925676232503  4.3208269139682365  64.447736785768  42.42159914813559  -74.27041340701402  29.222820938990118  0.000000
1.173  0.000000  0.000000  0.000000  -31.952084323066877  6.29828375508436  15.736080779292708  73.52541064612105  -2.950473816133411  4.374965734757138  64.52211317761109  42.356642091486734  -74.23463379042477  29.26599032997272  0.000000
1.196  0.000000  0.000000  0.000000  -31.957091009953853  6.310015851191251  15.768127492678195  73.56693232456375  -2.983576298090298  4.412488283394762  64.56195400492427  42.30877758511766  -74.18975439486556  29.28921907994656  0.000000
1.219  0.000000  0.000000  0.000000  -31.967367313620965  6.32632972668205  15.80143659553692  73.58936862523794  -3.001770831127789  4.43322062923483  64.56605759463386  42.278528780702615  -74.13439624557205  29.291786747744435  0.000000
1.242  0.000000  0.000000  0.000000  -31.981904952321305  6.347087780412625  15.835510632024741  73.59141375764422  -3.0051030470377116  4.437182582976159  64.53393978916004  42.265621195137335  -74.06688567199754  29.273236427311172  0.000000
1.265  0.000000  0.000000  0.000000  -32.001907584588984  6.3724298627486515  15.871082581227471  73.57481464911636  -2.993827746053866  4.424714861034497  64.46517888659154  42.27031522470991  -73.98561609750688  29.233156608852678  0.000000
1.288  0.000000  0.000000  0.000000  -32.02640438904125  6.402077921806997  15.90765434880608  73.5387375408036  -2.968230253919733  4.396226664272622  64.35999536031214  42.29220358502388  -73.88878717269321  29.17134887987988  0.000000
1.311  0.000000  0.000000  0.000000  -32.05650860090607  6.436019205298291  15.94605315265269  73.48535727895283  -2.9286491060915347  4.352328900183789  64.21865731712286  42.33132098247346  -73.77455311796811  29.08769306345519  0.000000
1.334  0.000000  0.000000  0.000000  -32.091079289539564  6.473861329471788  15.985779827767411  73.41421107534246  -2.87565709453615  4.29365857812322  64.04179075199804  42.38728760289412  -73.64097353161269  28.982237427929753  0.000000
1.357  0.000000  0.000000  0.000000  -32.131466981773706  6.515685933267889  16.02769425678194  73.32767028793664  -2.809736129478793  4.221412592739676  63.83038334881368  42.45982064975139  -73.48593227373135  28.8552896405522  0.000000
1.38  0.000000  0.000000  0.000000  -32.176623249984594  6.561342303973129  16.070973449963493  73.22550389602372  -2.7316172616088563  4.13654069064979  63.58540179459129  42.548958056400906  -73.30738141072399  28.70708054550364  0.000000
1.403  0.000000  0.000000  0.000000  -32.22746278800194  6.609778650781414  16.116872332204192  73.1098770049568  -2.6420040247709875  4.039399222892373  63.30779630536555  42.65450249333967  -73.10251108304799  28.53841830539927  0.000000
1.426  0.000000  0.000000  0.000000  -32.28283070825652  6.6601426440924705  16.165937118125253  72.9806041252561  -2.542522250345362  3.930672701516461  62.99864589756014  42.77574817059741  -72.86846990238668  28.350090524422342  0.000000
1.449  0.000000  0.000000  0.000000  -32.34455434566747  6.713074581623238  16.219010970751714  72.84124869813131  -2.4344485406435274  3.812781610705903  62.658774255761166  42.912452829818804  -72.6027506509989  28.142691554775965  0.000000
1.472  0.000000  0.000000  0.000000  -32.41216865462528  6.7687153248942025  16.27573868767143  72.69296500680672  -2.318210689349133  3.6881313110769383  62.289500484880016  43.06315238423266  -72.30294731648158  27.91728275050848  0.000000
1.4949999999999999  0.000000  0.000000  0.000000  -32.486821500591645  6.827640864837819  16.336223502984268  72.53965573484011  -2.1939140850317553  3.5594389540954583  61.891027028771255  43.22712736153274  -71.96652589067408  27.67482239482644  0.000000
1.518  0.000000  0.000000  0.000000  -32.56773220962712  6.888792340280611  16.400972086276877  72.38194529192397  -2.0622474952666945  3.427337951979879  61.46486349476833  43.403214781075064  -71.5906573608609  27.416707491958526  0.000000
1.541  0.000000  0.000000  0.000000  -32.655679879296045  6.9519358828227515  16.47178993660982  72.22239202855044  -1.9248573203077208  3.2925844611159247  61.011748105067625  43.59105890751087  -71.17314172946327  27.144660079780262  0.000000
1.564  0.000000  0.000000  0.000000  -32.749281759335226  7.016541868564454  16.548745951087675  72.0611767644323  -1.7823556260912172  3.155859551827859  60.53339550956003  43.78976451134287  -70.71227436225594  26.86022303961075  0.000000
1.587  0.000000  0.000000  0.000000  -32.84872655628562  7.08250854874923  16.63263112805187  71.90131043657883  -1.6360517059833608  3.0187537548757666  60.0313800323799  43.99883802203753  -70.20705756562369  26.565290437316943  0.000000
